# File created by Blade
# Date/Time:  Tue Apr 07 21:25:57 2015
# Frame Rate: 120.000 fps
#------------------------------------------------------
:FULLY-SPECIFIED
:DEGREES
231
root 23.923181 32.530298 3.179433 66.342109 -85.782300 -48.007908
Spine -1.337660 -6.808118 1.688906
Head 16.962009 2.630998 0.175949
LeftShoulder -10.856071 43.641580 10.119553
LeftArm 60.111951 13.806775 -71.302746
LeftForeArm -11.275376 -0.000000 14.173968
LeftHand 7.878609 -0.000000 -7.027774
LeftHandThumb1 -26.253704 0.000000 33.147579
RightShoulder -1.412869 -8.090432 -14.543092
RightArm 17.638499 -18.832193 88.095534
RightForeArm 6.191027 0.000000 15.005521
RightHand 5.310625 -0.000000 7.090513
RightHandThumb1 -24.326973 -0.000000 -32.862282
LeftUpLeg -27.520215 6.087789 -1.687668
LeftLeg 22.915635 -0.000000 -0.000000
LeftFoot -20.194809 28.010416 -23.901872
LeftToeBase -11.338774 -0.000000 0.000000
RightUpLeg -22.641328 3.760545 4.683203
RightLeg 9.786739 -0.000000 -0.000000
RightFoot -10.132183 -11.205502 11.294052
RightToeBase -4.027177 -0.000000 0.000000
232
root 23.949204 32.511298 3.145465 65.754694 -85.492753 -47.328643
Spine -1.167287 -6.752449 2.052248
Head 16.521489 2.485796 0.021508
LeftShoulder -10.696952 43.482727 10.281390
LeftArm 60.088376 13.927416 -71.519566
LeftForeArm -10.647194 -0.000000 14.226366
LeftHand 7.884951 0.000000 -6.461261
LeftHandThumb1 -26.253704 0.000000 33.147579
RightShoulder -1.281606 -8.088294 -14.789168
RightArm 17.562162 -18.684597 88.142027
RightForeArm 6.231445 -0.000000 15.215547
RightHand 5.379196 -0.000000 6.988377
RightHandThumb1 -24.326973 -0.000000 -32.862282
LeftUpLeg -28.775201 5.503304 -1.139775
LeftLeg 25.173715 -0.000000 -0.000000
LeftFoot -20.126523 27.674762 -24.067545
LeftToeBase -11.961809 -0.000000 0.000000
RightUpLeg -22.544663 3.591096 4.958667
RightLeg 9.337195 -0.000000 -0.000000
RightFoot -10.078553 -11.098497 11.372781
RightToeBase -3.869203 -0.000000 0.000000
233
root 23.975930 32.489466 3.109528 65.808764 -85.172802 -47.297048
Spine -0.981016 -6.620876 2.450147
Head 16.056692 2.270419 -0.075874
LeftShoulder -10.621603 43.391190 10.359960
LeftArm 60.251144 14.084909 -71.565712
LeftForeArm -10.274677 -0.000000 14.241498
LeftHand 7.837976 0.000000 -6.391200
LeftHandThumb1 -26.253704 0.000000 33.147579
RightShoulder -1.174445 -8.076793 -15.006624
RightArm 17.509325 -18.786862 88.047948
RightForeArm 6.475412 -0.000000 15.453047
RightHand 5.453504 0.000000 7.083122
RightHandThumb1 -24.326973 -0.000000 -32.862282
LeftUpLeg -29.982527 4.859875 -0.478071
LeftLeg 27.362461 -0.000000 -0.000000
LeftFoot -20.043456 27.271535 -24.282495
LeftToeBase -12.523773 -0.000000 0.000000
RightUpLeg -22.417933 3.638322 5.221121
RightLeg 8.827506 -0.000000 -0.000000
RightFoot -10.043880 -11.165735 11.520243
RightToeBase -3.662879 -0.000000 0.000000
234
root 24.006139 32.470333 3.076263 65.693833 -84.887980 -47.062182
Spine -0.817259 -6.489963 2.795017
Head 15.590511 2.063487 -0.118249
LeftShoulder -10.528432 43.187197 10.466022
LeftArm 60.286519 14.251832 -71.669773
LeftForeArm -9.717956 0.000000 14.285473
LeftHand 7.807059 -0.000000 -6.220903
LeftHandThumb1 -26.253704 0.000000 33.147579
RightShoulder -1.041371 -8.017491 -15.175949
RightArm 17.436311 -18.861856 87.925749
RightForeArm 6.657525 -0.000000 15.666978
RightHand 5.428127 -0.000000 6.949868
RightHandThumb1 -24.326973 -0.000000 -32.862282
LeftUpLeg -31.187641 4.188603 0.165396
LeftLeg 29.457100 -0.000000 -0.000000
LeftFoot -19.847462 26.881005 -24.373647
LeftToeBase -13.087335 -0.000000 0.000000
RightUpLeg -22.308633 3.786746 5.395892
RightLeg 8.260848 -0.000000 -0.000000
RightFoot -9.955729 -11.288168 11.635244
RightToeBase -3.551094 -0.000000 0.000000
235
root 24.034185 32.449431 3.042498 65.736656 -84.606447 -46.984399
Spine -0.674284 -6.327627 3.129040
Head 15.169751 1.804004 -0.129189
LeftShoulder -10.403394 43.012703 10.592040
LeftArm 60.345732 14.405179 -71.771419
LeftForeArm -9.382533 -0.000000 14.305420
LeftHand 7.863637 -0.000000 -5.806933
LeftHandThumb1 -26.253704 0.000000 33.147579
RightShoulder -0.916401 -7.987235 -15.312083
RightArm 17.444915 -18.901018 87.771392
RightForeArm 6.753677 -0.000000 15.771953
RightHand 5.559849 -0.000000 6.971973
RightHandThumb1 -24.326973 -0.000000 -32.862282
LeftUpLeg -32.410700 3.534962 0.820410
LeftLeg 31.573542 -0.000000 -0.000000
LeftFoot -19.496405 26.508677 -24.203089
LeftToeBase -13.619796 -0.000000 0.000000
RightUpLeg -22.345902 3.719113 5.655479
RightLeg 8.007071 -0.000000 -0.000000
RightFoot -9.942864 -11.202368 11.562717
RightToeBase -3.260752 -0.000000 0.000000
236
root 24.058303 32.430393 3.004495 66.246356 -84.290753 -47.405460
Spine -0.495976 -6.115582 3.488415
Head 14.761161 1.540435 -0.069252
LeftShoulder -9.952769 42.490921 11.004867
LeftArm 59.826787 14.555441 -72.186314
LeftForeArm -8.930084 -0.000000 14.545314
LeftHand 7.694080 -0.000000 -6.042017
LeftHandThumb1 -26.253704 0.000000 33.147579
RightShoulder -0.801966 -7.980293 -15.399294
RightArm 17.496819 -19.105227 87.506381
RightForeArm 6.926454 -0.000000 15.895127
RightHand 5.590773 -0.000000 6.958631
RightHandThumb1 -24.326973 -0.000000 -32.862282
LeftUpLeg -33.647118 3.007934 1.499941
LeftLeg 33.736245 -0.000000 -0.000000
LeftFoot -18.830618 26.297821 -23.357617
LeftToeBase -14.099506 -0.000000 0.000000
RightUpLeg -22.300361 3.796158 5.940355
RightLeg 7.649298 -0.000000 -0.000000
RightFoot -9.836246 -11.210315 11.661195
RightToeBase -3.436262 -0.000000 0.000000
237
root 24.081480 32.413990 2.967028 67.005157 -83.986077 -48.054133
Spine -0.345516 -5.895112 3.841340
Head 14.384771 1.265264 0.014356
LeftShoulder -9.797645 42.186096 11.144571
LeftArm 59.713054 14.729376 -72.317495
LeftForeArm -8.842883 -0.000000 14.576067
LeftHand 7.906112 -0.000000 -5.689615
LeftHandThumb1 -26.253704 0.000000 33.147579
RightShoulder -0.694472 -7.949837 -15.432849
RightArm 17.622787 -19.309717 87.178092
RightForeArm 7.025830 -0.000000 15.894330
RightHand 5.652663 -0.000000 6.888105
RightHandThumb1 -24.326973 -0.000000 -32.862282
LeftUpLeg -34.904404 2.574970 2.146748
LeftLeg 35.848706 -0.000000 -0.000000
LeftFoot -18.000447 25.950765 -22.201572
LeftToeBase -13.980090 -0.000000 0.000000
RightUpLeg -22.270267 3.913833 6.228879
RightLeg 7.279005 -0.000000 -0.000000
RightFoot -9.635422 -11.387957 11.497387
RightToeBase -3.691214 -0.000000 0.000000
238
root 24.099805 32.401358 2.939395 67.727943 -83.805503 -48.658537
Spine -0.217502 -5.588842 4.069494
Head 14.056788 0.978919 0.144400
LeftShoulder -9.696708 42.123889 11.175403
LeftArm 59.874507 14.837865 -72.290040
LeftForeArm -8.646243 -0.000000 14.635198
LeftHand 7.872961 -0.000000 -5.782131
LeftHandThumb1 -26.253704 0.000000 33.147579
RightShoulder -0.631035 -7.923144 -15.437023
RightArm 17.776231 -19.482549 86.860035
RightForeArm 7.013466 -0.000000 15.802021
RightHand 5.593968 -0.000000 6.732297
RightHandThumb1 -24.326973 -0.000000 -32.862282
LeftUpLeg -36.010989 2.110226 2.702086
LeftLeg 37.616623 -0.000000 -0.000000
LeftFoot -16.989293 25.673962 -20.762358
LeftToeBase -14.627664 -0.000000 0.000000
RightUpLeg -22.243388 4.015133 6.421157
RightLeg 6.898409 -0.000000 -0.000000
RightFoot -9.454448 -11.498128 11.366228
RightToeBase -3.697722 -0.000000 0.000000
239
root 24.113417 32.391043 2.916162 68.275643 -83.674308 -49.086495
Spine -0.108866 -5.281015 4.229416
Head 13.763708 0.685525 0.291675
LeftShoulder -9.628292 42.079351 11.193511
LeftArm 60.059223 14.960352 -72.255768
LeftForeArm -8.485356 -0.000000 14.629077
LeftHand 7.963848 -0.000000 -5.677633
LeftHandThumb1 -26.253704 0.000000 33.147579
RightShoulder -0.600236 -7.919354 -15.389091
RightArm 18.003483 -19.789671 86.460201
RightForeArm 6.759593 -0.000000 15.641264
RightHand 5.780371 -0.000000 6.334822
RightHandThumb1 -24.326973 -0.000000 -32.862282
LeftUpLeg -37.040839 1.685652 3.182522
LeftLeg 39.147362 -0.000000 -0.000000
LeftFoot -15.829204 25.330981 -19.118901
LeftToeBase -15.734844 -0.000000 0.000000
RightUpLeg -22.189180 4.016721 6.597036
RightLeg 6.476018 -0.000000 -0.000000
RightFoot -9.279973 -11.600018 11.248932
RightToeBase -3.618417 -0.000000 0.000000
240
root 24.122083 32.383152 2.896356 68.819730 -83.600571 -49.532287
Spine 0.017657 -4.953241 4.308384
Head 13.504752 0.391726 0.526643
LeftShoulder -9.528418 41.972988 11.262769
LeftArm 60.143057 15.073076 -72.310043
LeftForeArm -8.415368 -0.000000 14.637666
LeftHand 7.964312 -0.000000 -5.258666
LeftHandThumb1 -26.253704 0.000000 33.147579
RightShoulder -0.597662 -7.890342 -15.323566
RightArm 18.243525 -20.041918 86.070411
RightForeArm 6.656806 -0.000000 15.432936
RightHand 5.890862 -0.000000 6.286942
RightHandThumb1 -24.326973 -0.000000 -32.862282
LeftUpLeg -37.987470 1.372300 3.579015
LeftLeg 40.502846 -0.000000 -0.000000
LeftFoot -15.020264 24.509864 -17.813037
LeftToeBase -16.217971 -0.000000 0.000000
RightUpLeg -22.109606 3.969846 6.746375
RightLeg 6.067541 -0.000000 -0.000000
RightFoot -9.147594 -11.720678 11.014500
RightToeBase -3.371567 -0.000000 0.000000
241
root 24.125328 32.379565 2.882636 69.339927 -83.567745 -49.929211
Spine 0.103597 -4.615692 4.354341
Head 13.246337 0.111947 0.739769
LeftShoulder -9.446142 41.827986 11.307267
LeftArm 60.152683 15.193512 -72.387004
LeftForeArm -8.144339 -0.000000 14.670933
LeftHand 8.042953 0.000000 -5.688190
LeftHandThumb1 -26.253704 0.000000 33.147579
RightShoulder -0.655149 -7.807961 -15.259447
RightArm 18.467532 -20.310937 85.708683
RightForeArm 6.570785 -0.000000 15.166456
RightHand 5.828958 -0.000000 6.266935
RightHandThumb1 -24.326973 -0.000000 -32.862282
LeftUpLeg -38.848107 1.041799 3.976091
LeftLeg 41.596067 -0.000000 -0.000000
LeftFoot -14.687569 23.039801 -17.558115
LeftToeBase -16.852325 -0.000000 0.000000
RightUpLeg -22.040224 3.892655 6.855064
RightLeg 5.652861 -0.000000 -0.000000
RightFoot -8.969922 -11.636555 11.053588
RightToeBase -3.529153 -0.000000 0.000000
242
root 24.123189 32.381720 2.873079 69.583476 -83.575753 -50.041900
Spine 0.162638 -4.355072 4.342069
Head 13.044053 -0.100520 0.994912
LeftShoulder -9.465555 41.780476 11.262783
LeftArm 60.240524 15.339169 -72.375014
LeftForeArm -8.246386 -0.000000 14.680980
LeftHand 7.926880 -0.000000 -5.052405
LeftHandThumb1 -26.253704 0.000000 33.147579
RightShoulder -0.675125 -7.745147 -15.162575
RightArm 18.702711 -20.491478 85.349620
RightForeArm 6.308972 -0.000000 14.921717
RightHand 5.896353 -0.000000 6.196919
RightHandThumb1 -24.326973 -0.000000 -32.862282
LeftUpLeg -39.602537 0.714175 4.306383
LeftLeg 42.302417 -0.000000 -0.000000
LeftFoot -14.448162 21.255561 -17.611453
LeftToeBase -17.773321 -0.000000 0.000000
RightUpLeg -21.952628 3.765720 6.916741
RightLeg 5.216459 -0.000000 -0.000000
RightFoot -8.782085 -11.526355 11.016279
RightToeBase -3.443132 -0.000000 0.000000
243
root 24.118012 32.387354 2.869105 69.628856 -83.626235 -49.934354
Spine 0.192295 -4.095367 4.280231
Head 12.845232 -0.340845 1.224828
LeftShoulder -9.659785 41.743453 11.075195
LeftArm 60.499346 15.535048 -72.206816
LeftForeArm -8.180491 -0.000000 14.578634
LeftHand 7.948602 -0.000000 -5.477812
LeftHandThumb1 -26.253704 0.000000 33.147579
RightShoulder -0.734878 -7.601769 -15.089687
RightArm 18.825187 -20.542044 85.116327
RightForeArm 5.915767 -0.000000 14.715487
RightHand 5.766051 -0.000000 6.181883
RightHandThumb1 -24.326973 -0.000000 -32.862282
LeftUpLeg -40.278723 0.430671 4.508771
LeftLeg 42.625707 -0.000000 -0.000000
LeftFoot -13.986760 19.572178 -16.967520
LeftToeBase -18.499768 -0.000000 0.000000
RightUpLeg -21.887022 3.579632 6.940424
RightLeg 4.791265 -0.000000 -0.000000
RightFoot -8.598541 -11.402340 11.012790
RightToeBase -3.399417 -0.000000 0.000000
